<svg xmlns="http://www.w3.org/2000/svg" width="20" height="20" viewBox="0 0 20 20">
    <g fill="none" fill-rule="evenodd">
        <path fill="#FFF" d="M0 0h20v20H0z" opacity=".01"/>
        <path fill="#ADB5BD" fill-rule="nonzero" d="M9.074 6.176l3.75 3.75c.117.13.176.28.176.449 0 .17-.059.319-.176.45l-3.75 3.75a.89.89 0 0 1-.215.126.605.605 0 0 1-.234.049.605.605 0 0 1-.234-.049.89.89 0 0 1-.215-.127.652.652 0 0 1-.176-.449c0-.17.059-.319.176-.45l3.32-3.3-3.32-3.3A.652.652 0 0 1 8 6.624c0-.17.059-.319.176-.45A.652.652 0 0 1 8.625 6c.17 0 .319.059.45.176z"/>
    </g>
</svg>
