<svg xmlns="http://www.w3.org/2000/svg" width="24" height="24" viewBox="0 0 24 24">
    <g fill="none" fill-rule="evenodd">
        <path fill="#435966" fill-opacity=".01" d="M0 0h24v24H0z"/>
        <path fill="#CED4DA" fill-rule="nonzero" d="M11.71 9.21l-4.5 4.5a.782.782 0 0 0-.21.54c0 .203.07.383.21.54.157.14.337.21.54.21s.383-.07.54-.21l3.96-3.985 3.96 3.984c.157.14.337.211.54.211s.383-.07.54-.21a.782.782 0 0 0 .21-.54.782.782 0 0 0-.21-.54l-4.5-4.5a1.068 1.068 0 0 0-.259-.151A.726.726 0 0 0 12.25 9a.726.726 0 0 0-.281.059c-.094.039-.18.09-.258.152z"/>
    </g>
</svg>
