<svg xmlns="http://www.w3.org/2000/svg" width="24" height="24" viewBox="0 0 24 24">
    <g fill="none" fill-rule="evenodd">
        <path fill="#FFF" fill-opacity=".01" d="M0 0h24v24H0z"/>
        <path fill="#51A7FF" fill-rule="nonzero" d="M12.318 9.193l-4.125 4.125a.717.717 0 0 0-.193.495c0 .186.064.35.193.494a.717.717 0 0 0 .495.193c.186 0 .35-.064.494-.193l3.63-3.653 3.631 3.653a.717.717 0 0 0 .494.193c.187 0 .351-.064.495-.193a.717.717 0 0 0 .193-.495.717.717 0 0 0-.193-.494l-4.125-4.125a.979.979 0 0 0-.237-.14.666.666 0 0 0-.258-.053.666.666 0 0 0-.257.054.979.979 0 0 0-.237.14z"/>
    </g>
</svg>
