<svg xmlns="http://www.w3.org/2000/svg" width="24" height="24" viewBox="0 0 24 24">
    <g fill="none" fill-rule="evenodd">
        <path fill="#FFF" fill-opacity=".01" d="M0 0h24v24H0z"/>
        <path fill="#6C757D" fill-rule="nonzero" d="M11.318 14.307l-4.125-4.125A.717.717 0 0 1 7 9.687c0-.186.064-.35.193-.494A.717.717 0 0 1 7.688 9c.186 0 .35.064.494.193l3.63 3.653 3.631-3.653A.717.717 0 0 1 15.938 9c.186 0 .35.064.494.193a.717.717 0 0 1 .193.495c0 .186-.064.35-.193.494l-4.125 4.125a.979.979 0 0 1-.237.14.666.666 0 0 1-.258.053.666.666 0 0 1-.257-.054.979.979 0 0 1-.237-.14z"/>
    </g>
</svg>
