<svg xmlns="http://www.w3.org/2000/svg" width="24" height="24" viewBox="0 0 24 24">
    <g fill="none" fill-rule="evenodd">
        <path fill="#435966" fill-opacity=".01" d="M0 0h24v24H0z"/>
        <path fill="#CED4DA" fill-rule="nonzero" d="M11.71 14.79l-4.5-4.5A.782.782 0 0 1 7 9.75c0-.203.07-.383.21-.54A.782.782 0 0 1 7.75 9c.203 0 .383.07.54.21l3.96 3.985 3.96-3.984A.782.782 0 0 1 16.75 9c.203 0 .383.07.54.21.14.157.21.337.21.54s-.07.383-.21.54l-4.5 4.5a1.068 1.068 0 0 1-.259.151.726.726 0 0 1-.281.059.726.726 0 0 1-.281-.059c-.094-.039-.18-.09-.258-.152z"/>
    </g>
</svg>
