<svg xmlns="http://www.w3.org/2000/svg" width="28" height="28" viewBox="0 0 28 28">
    <g fill="none" fill-rule="evenodd">
        <path fill="#435966" fill-opacity=".01" d="M0 0h28v28H0z"/>
        <path fill="#FFF" fill-rule="nonzero" d="M24.754 4.246a.913.913 0 0 1 .246.629.913.913 0 0 1-.246.629L15.73 14.5l9.024 8.996a.913.913 0 0 1 .246.629.913.913 0 0 1-.246.629 1.246 1.246 0 0 1-.3.178.847.847 0 0 1-.329.068.847.847 0 0 1-.328-.068 1.246 1.246 0 0 1-.3-.178L14.5 15.73l-8.996 9.024a1.246 1.246 0 0 1-.3.178.847.847 0 0 1-.329.068.847.847 0 0 1-.328-.068 1.246 1.246 0 0 1-.3-.178.913.913 0 0 1-.247-.629c0-.237.082-.447.246-.629L13.27 14.5 4.246 5.504A.913.913 0 0 1 4 4.875c0-.237.082-.447.246-.629A.913.913 0 0 1 4.875 4c.237 0 .447.082.629.246L14.5 13.27l8.996-9.024A.913.913 0 0 1 24.125 4c.237 0 .447.082.629.246z"/>
    </g>
</svg>
