<svg xmlns="http://www.w3.org/2000/svg" width="28" height="28" viewBox="0 0 28 28">
    <g fill="none" fill-rule="evenodd">
        <path fill="#435966" fill-opacity=".01" d="M0 0h28v28H0z"/>
        <path fill="#FFF" fill-rule="nonzero" d="M1.875 14.625a.84.84 0 0 1-.615-.26.84.84 0 0 1-.26-.615.84.84 0 0 1 .26-.615.84.84 0 0 1 .615-.26h24.5a.84.84 0 0 1 .615.26.84.84 0 0 1 .26.615.84.84 0 0 1-.26.615.84.84 0 0 1-.615.26h-24.5zm0-7.875a.84.84 0 0 1-.615-.26.84.84 0 0 1-.26-.615.84.84 0 0 1 .26-.615.84.84 0 0 1 .615-.26h24.5a.84.84 0 0 1 .615.26.84.84 0 0 1 .26.615.84.84 0 0 1-.26.615.84.84 0 0 1-.615.26h-24.5zm0 15.75a.84.84 0 0 1-.615-.26.84.84 0 0 1-.26-.615.84.84 0 0 1 .26-.615.84.84 0 0 1 .615-.26h24.5a.84.84 0 0 1 .615.26.84.84 0 0 1 .26.615.84.84 0 0 1-.26.615.84.84 0 0 1-.615.26h-24.5z"/>
    </g>
</svg>
